<svg version="1.0" xmlns="http://www.w3.org/2000/svg"
 width="1490" height="1810" viewBox="0 0 1490.000000 1810.000000"
 preserveAspectRatio="xMidYMid meet">
<metadata>
Created by potrace 1.16, written by Peter Selinger 2001-2019
</metadata>
<g transform="translate(0.000000,1810.000000) scale(0.100000,-0.100000)"
fill="#001E5C" stroke="none">
<path d="M9040 18079 c-74 -3 -1673 -7 -3552 -8 l-3417 -1 -3 -1262 c-3 -1419
5 -1275 -82 -1407 -47 -72 -64 -114 -97 -239 -26 -102 -46 -127 -111 -147 -83
-24 -109 -20 -182 30 -37 25 -70 45 -75 45 -19 0 -80 81 -145 192 -76 132 -69
127 -223 150 -64 9 -90 9 -123 -1 -22 -7 -90 -16 -149 -21 -101 -8 -126 -15
-375 -104 -147 -53 -273 -99 -280 -103 -11 -7 -10 -25 7 -98 14 -64 20 -132
21 -235 2 -121 6 -154 23 -197 30 -74 69 -140 116 -190 l40 -44 -25 -27 c-65
-69 -68 -91 -51 -402 9 -161 13 -184 47 -290 l38 -115 -16 -97 c-9 -53 -16
-146 -16 -206 0 -136 20 -205 91 -322 72 -117 86 -160 104 -307 19 -153 27
-188 67 -316 l31 -97 -62 -64 c-62 -66 -111 -151 -111 -196 0 -14 7 -46 14
-71 13 -41 12 -53 -5 -115 -32 -116 -43 -233 -30 -321 13 -88 62 -203 115
-268 18 -22 38 -55 44 -73 25 -74 111 -200 203 -298 118 -126 160 -206 219
-412 22 -79 50 -166 61 -195 12 -29 35 -90 51 -137 47 -133 90 -181 216 -243
164 -81 422 -323 422 -395 0 -10 -14 -31 -31 -48 -17 -16 -60 -66 -95 -111
-82 -103 -123 -139 -176 -153 -24 -6 -52 -14 -63 -17 -11 -3 -36 -23 -55 -44
-27 -30 -55 -45 -124 -69 -98 -34 -161 -64 -190 -89 -34 -30 -56 -90 -65 -175
-10 -103 -29 -138 -135 -253 -86 -92 -85 -88 -61 -225 15 -84 15 -87 -6 -122
-29 -49 -35 -136 -15 -211 8 -33 21 -104 27 -158 l12 -97 -48 -95 c-44 -85
-49 -102 -53 -177 -3 -60 1 -102 13 -148 34 -123 35 -116 -49 -215 -42 -48
-102 -127 -134 -174 l-57 -86 -103 -11 c-56 -6 -104 -13 -107 -15 -2 -2 -7
-56 -10 -119 -4 -63 -16 -152 -26 -196 -22 -95 -22 -97 -8 -147 12 -43 59
-101 100 -123 25 -12 27 -17 19 -39 -5 -13 -15 -75 -21 -137 -8 -73 -20 -133
-35 -170 -47 -114 -26 -212 67 -321 61 -71 106 -91 209 -91 47 0 112 3 146 8
l61 9 26 -35 c48 -63 66 -120 83 -264 26 -219 27 -215 -50 -290 -63 -61 -73
-78 -91 -167 -10 -48 -56 -60 -236 -61 l-157 -1 -147 -175 c-81 -96 -156 -193
-168 -215 -27 -50 -27 -120 -2 -342 18 -158 19 -163 44 -172 235 -84 881 -322
1251 -461 744 -279 4191 -1577 5160 -1942 481 -182 893 -334 915 -338 22 -4
540 -196 1150 -427 l1110 -420 485 -12 c550 -13 1390 -14 3167 -4 l1229 6 -52
144 c-325 886 -456 1511 -533 2548 -86 1151 -103 1554 -90 2135 16 675 51
1128 204 2607 218 2114 281 2994 301 4193 6 388 -6 972 -27 1285 -105 1595
-473 2754 -1135 3585 -129 162 -388 423 -539 543 -318 254 -683 458 -1077 601
-433 157 -1014 268 -1603 306 -174 11 -789 11 -1005 -1z m-1639 -260 c-675
-183 -1227 -441 -1705 -797 -168 -126 -232 -185 -307 -285 l-61 -81 28 -23
c16 -13 55 -37 88 -54 49 -27 75 -33 160 -40 315 -25 881 -161 1265 -304 594
-221 1061 -514 1471 -925 523 -523 879 -1158 1060 -1895 110 -445 155 -952
132 -1462 -30 -643 -103 -1081 -264 -1573 -217 -665 -557 -1302 -1106 -2070
-266 -372 -474 -641 -1102 -1430 -802 -1007 -1000 -1271 -1269 -1695 -522
-822 -869 -1655 -1091 -2615 -27 -118 -52 -234 -56 -257 -4 -24 -8 -43 -10
-43 -3 0 -829 310 -1837 689 -1007 379 -1978 742 -2157 807 -179 64 -330 122
-337 128 -6 6 -17 66 -24 133 -12 118 -12 124 7 145 11 13 64 75 117 139 l97
116 133 6 c78 3 153 11 183 21 90 28 183 131 184 204 0 14 20 43 53 76 80 79
102 131 102 241 0 100 -20 295 -37 365 -16 66 -82 189 -125 234 -72 74 -135
88 -319 72 l-90 -9 -31 47 -31 47 19 45 c12 26 27 97 35 167 8 67 22 146 31
175 30 102 1 184 -83 237 l-42 27 14 51 c8 29 14 66 14 82 1 60 9 72 58 85 45
11 102 46 130 80 7 8 37 52 68 97 30 45 83 113 118 151 123 134 148 215 108
348 -31 109 -33 122 -21 167 6 23 27 69 48 101 l36 60 0 130 c0 87 -6 163 -19
227 l-18 95 21 42 c22 44 28 136 12 217 -7 38 -5 43 43 95 98 109 143 200 154
316 l7 69 112 40 c64 23 133 55 159 75 61 45 62 46 103 61 76 28 148 88 236
199 49 61 99 117 112 125 54 36 89 172 64 248 -25 75 -106 181 -212 276 -141
127 -220 186 -306 227 -84 40 -107 66 -129 141 -8 29 -26 79 -39 111 -13 31
-42 122 -65 202 -68 235 -136 364 -259 487 -75 75 -128 152 -173 252 -17 36
-45 84 -64 106 -86 106 -104 224 -59 400 23 91 27 120 22 186 l-6 79 57 62
c89 96 92 103 92 186 0 51 -7 95 -24 145 -38 115 -54 185 -66 297 -6 58 -16
125 -22 150 -15 62 -61 163 -108 235 -69 108 -84 201 -55 360 25 137 20 210
-22 338 -35 105 -37 120 -38 237 0 69 -4 151 -9 183 l-9 58 42 35 c52 45 71
81 71 134 0 61 -23 104 -94 178 -98 103 -100 109 -101 299 l-1 162 85 32 c205
75 289 100 356 104 38 3 100 11 136 17 113 19 125 12 189 -99 65 -114 125
-183 183 -213 23 -12 67 -37 97 -56 88 -55 150 -69 244 -56 141 21 240 84 292
185 14 26 36 91 50 144 28 109 23 97 80 183 24 36 54 92 66 125 22 60 22 63
29 920 4 473 7 1007 8 1188 l1 327 2653 -1 2652 0 -184 -50z m2640 -689 c1037
-53 1738 -318 2285 -864 406 -406 683 -927 883 -1661 132 -483 209 -989 252
-1655 17 -263 23 -1331 10 -1695 -33 -924 -99 -1758 -262 -3310 -205 -1964
-239 -2426 -239 -3241 0 -420 -3 -444 -55 -464 -41 -16 -65 -13 -263 31 -945
208 -1695 546 -2237 1010 -134 114 -330 321 -427 450 -531 707 -646 1576 -341
2584 51 169 139 405 301 810 210 526 285 747 376 1110 252 1012 291 2101 110
3109 -14 77 -28 174 -31 213 -9 112 -1 118 203 183 313 98 534 330 618 650 75
285 75 674 0 972 -79 314 -253 622 -491 869 -143 149 -206 166 -363 98 -116
-49 -196 -70 -302 -76 -123 -7 -200 7 -303 57 -174 84 -286 225 -384 487 -99
263 -93 313 41 333 79 11 389 11 619 0z M1490 4278 c0 -24 -122 -352 -157
-421 l-23 -47 22 -9 c13 -5 77 -30 143 -55 66 -25 125 -46 131 -46 6 0 17 12
25 28 7 15 15 30 17 34 2 4 -12 4 -32 1 -41 -6 -176 31 -176 50 0 7 14 52 32
100 37 98 32 95 120 61 35 -13 51 -15 59 -7 17 17 5 28 -61 52 -33 12 -60 26
-60 32 0 5 14 45 31 89 l30 79 47 -20 c26 -11 62 -32 80 -46 18 -14 35 -23 37
-22 2 2 5 17 7 33 3 28 1 29 -134 81 -128 49 -138 52 -138 33z M1875 4120
c-52 -11 -76 -30 -96 -73 -33 -74 -22 -114 61 -212 55 -65 68 -101 48 -142
-40 -84 -155 -53 -191 51 l-13 39 -22 -34 c-18 -29 -19 -37 -8 -54 24 -37 95
-83 143 -94 89 -19 162 12 194 82 34 76 22 115 -65 220 -40 49 -56 77 -56 98
0 37 40 79 74 79 31 0 94 -53 102 -87 8 -29 20 -26 42 11 17 27 16 28 -13 53
-59 49 -144 76 -200 63z M2144 4028 c-4 -7 -13 -22 -20 -33 -12 -19 -11 -20
30 -17 24 2 55 -2 68 -10 l25 -13 -72 -185 c-39 -102 -79 -200 -89 -218 -10
-19 -16 -35 -14 -36 2 -2 23 -11 48 -20 25 -10 50 -20 56 -23 7 -2 15 12 19
34 5 30 140 398 150 411 7 9 74 -29 92 -52 l21 -26 7 36 c3 20 4 38 2 41 -5 4
-307 123 -313 123 -2 0 -6 -6 -10 -12z M2854 3923 c-23 -4 -34 -29 -34 -74 l0
-26 47 23 c126 64 198 -20 130 -152 -25 -49 -96 -107 -196 -160 -52 -27 -115
-68 -141 -91 -43 -38 -80 -95 -80 -121 0 -5 69 -35 153 -67 83 -32 166 -64
183 -71 l31 -13 39 66 c50 85 50 87 26 74 -37 -19 -105 -12 -206 24 -54 19
-101 37 -105 40 -3 4 8 20 26 35 22 20 72 41 160 69 161 51 213 84 249 157 22
45 26 63 20 101 -12 88 -76 150 -183 178 -57 15 -78 16 -119 8z M3337 3726
c-113 -42 -205 -176 -242 -351 -33 -161 22 -288 143 -330 136 -46 260 22 342
189 106 214 81 404 -63 477 -51 27 -131 33 -180 15z m171 -82 c32 -37 29 -96
-13 -223 -72 -213 -147 -331 -211 -331 -15 0 -38 12 -55 29 -40 41 -39 94 6
227 63 188 126 302 179 325 31 12 68 2 94 -27z M3778 3528 c-59 -23 -78 -35
-78 -50 0 -27 25 -32 70 -14 22 9 40 12 40 8 0 -18 -164 -432 -191 -481 -16
-30 -28 -56 -26 -57 1 -1 36 -16 77 -32 l75 -30 13 46 c7 26 60 172 119 325
58 153 104 279 102 281 -12 9 -92 36 -107 35 -9 -1 -52 -15 -94 -31z M2264
3475 c-9 -36 2 -55 31 -55 32 0 55 41 35 65 -20 25 -59 19 -66 -10z M4094
3263 c-219 -177 -244 -201 -247 -237 -2 -26 3 -29 103 -68 58 -22 107 -41 109
-44 7 -6 -41 -113 -56 -126 -13 -10 -10 -14 19 -24 18 -6 57 -21 86 -33 29
-12 50 -17 47 -11 -8 12 33 140 45 140 4 0 23 -7 42 -15 26 -10 38 -11 46 -3
23 23 13 45 -28 58 -22 7 -40 17 -40 21 0 6 144 383 166 434 3 6 -22 20 -55
32 l-59 21 -178 -145z m45 -154 c-28 -74 -52 -135 -54 -137 -4 -4 -139 48
-148 57 -4 4 50 55 120 114 70 58 129 104 131 103 1 -2 -21 -63 -49 -137z"/>
</g>
</svg>
